<svg width="58" height="58" viewBox="0 0 58 58" fill="none" xmlns="http://www.w3.org/2000/svg">
<path d="M29 3.625C14.8625 3.625 3.625 14.8625 3.625 29C3.625 43.1375 14.8625 54.375 29 54.375C43.1375 54.375 54.375 43.1375 54.375 29C54.375 14.8625 43.1375 3.625 29 3.625ZM29 50.75C17.0375 50.75 7.25 40.9625 7.25 29C7.25 17.0375 17.0375 7.25 29 7.25C40.9625 7.25 50.75 17.0375 50.75 29C50.75 40.9625 40.9625 50.75 29 50.75Z" fill="#FF2F41"/>
<path d="M38.7875 41.6875L29 31.9L19.2125 41.6875L16.3125 38.7875L26.1 29L16.3125 19.2125L19.2125 16.3125L29 26.1L38.7875 16.3125L41.6875 19.2125L31.9 29L41.6875 38.7875L38.7875 41.6875Z" fill="#FF2F41"/>
</svg>
