<svg width="58" height="58" viewBox="0 0 58 58" fill="none" xmlns="http://www.w3.org/2000/svg">
<path d="M25.375 38.8129L16.3125 29.7486L18.8736 27.1875L25.375 33.6871L39.1228 19.9375L41.6875 22.5022L25.375 38.8129Z" fill="#00C85C"/>
<path d="M29 3.625C23.9813 3.625 19.0753 5.11322 14.9024 7.90146C10.7295 10.6897 7.47714 14.6527 5.55657 19.2894C3.63599 23.9261 3.13348 29.0281 4.11258 33.9504C5.09168 38.8727 7.50842 43.3941 11.0572 46.9428C14.6059 50.4916 19.1273 52.9083 24.0496 53.8874C28.9719 54.8665 34.0739 54.364 38.7106 52.4434C43.3473 50.5229 47.3103 47.2705 50.0986 43.0976C52.8868 38.9247 54.375 34.0187 54.375 29C54.375 22.2701 51.7016 15.8159 46.9428 11.0572C42.1841 6.29843 35.7299 3.625 29 3.625ZM29 50.75C24.6983 50.75 20.4931 49.4744 16.9164 47.0845C13.3396 44.6945 10.5518 41.2977 8.90563 37.3234C7.25943 33.3491 6.8287 28.9759 7.66793 24.7568C8.50716 20.5377 10.5786 16.6622 13.6204 13.6204C16.6622 10.5786 20.5377 8.50715 24.7568 7.66792C28.9759 6.82869 33.3491 7.25941 37.3234 8.90562C41.2977 10.5518 44.6945 13.3396 47.0845 16.9163C49.4744 20.4931 50.75 24.6983 50.75 29C50.75 34.7685 48.4585 40.3007 44.3796 44.3796C40.3007 48.4585 34.7685 50.75 29 50.75Z" fill="#00C85C"/>
</svg>
