<svg width="58" height="58" viewBox="0 0 58 58" fill="none" xmlns="http://www.w3.org/2000/svg">
<path d="M29 51C24.6488 51 20.3953 49.7097 16.7775 47.2923C13.1596 44.8749 10.3398 41.439 8.67466 37.419C7.00953 33.3991 6.57386 28.9756 7.42273 24.708C8.27161 20.4404 10.3669 16.5204 13.4437 13.4437C16.5204 10.3669 20.4404 8.27161 24.708 7.42273C28.9756 6.57386 33.3991 7.00953 37.419 8.67466C41.439 10.3398 44.8749 13.1596 47.2923 16.7775C49.7097 20.3953 51 24.6488 51 29C51 34.8348 48.6821 40.4306 44.5564 44.5564C40.4306 48.6821 34.8348 51 29 51ZM29 11C25.4399 11 21.9598 12.0557 18.9997 14.0336C16.0397 16.0114 13.7326 18.8226 12.3702 22.1117C11.0078 25.4008 10.6513 29.02 11.3459 32.5116C12.0404 36.0033 13.7547 39.2106 16.2721 41.7279C18.7894 44.2453 21.9967 45.9596 25.4884 46.6541C28.98 47.3487 32.5992 46.9922 35.8883 45.6298C39.1774 44.2675 41.9886 41.9603 43.9665 39.0003C45.9443 36.0402 47 32.5601 47 29C47 24.2261 45.1036 19.6477 41.7279 16.2721C38.3523 12.8964 33.7739 11 29 11Z" fill="#B3B3B3"/>
<path d="M33.9731 37L26.7931 29.82V17H30.7931V28.16L36.7931 34.18L33.9731 37Z" fill="#B3B3B3"/>
</svg>
