<svg width="28" height="28" viewBox="0 0 28 28" fill="none" xmlns="http://www.w3.org/2000/svg">
<path d="M27.4334 9.92163L14.3084 2.92163C14.2137 2.87051 14.1077 2.84375 14 2.84375C13.8923 2.84375 13.7863 2.87051 13.6916 2.92163L0.566554 9.92163C0.461831 9.97768 0.374282 10.0611 0.313245 10.163C0.252208 10.2649 0.219971 10.3814 0.219971 10.5002C0.219971 10.619 0.252208 10.7356 0.313245 10.8375C0.374282 10.9394 0.461831 11.0228 0.566554 11.0788L3.71874 12.761V18.1882C3.71865 18.5641 3.85685 18.927 4.10702 19.2076C5.51468 20.7749 8.67234 23.4065 14 23.4065C15.876 23.4241 17.7362 23.0621 19.4687 22.3423V26.2502C19.4687 26.4243 19.5379 26.5912 19.661 26.7143C19.784 26.8373 19.9509 26.9065 20.125 26.9065C20.299 26.9065 20.466 26.8373 20.589 26.7143C20.7121 26.5912 20.7812 26.4243 20.7812 26.2502V21.6948C21.946 21.0388 22.9969 20.1985 23.893 19.2065C24.1437 18.9266 24.282 18.5639 24.2812 18.1882V12.761L27.4334 11.0788C27.5382 11.0228 27.6257 10.9394 27.6867 10.8375C27.7478 10.7356 27.78 10.619 27.78 10.5002C27.78 10.3814 27.7478 10.2649 27.6867 10.163C27.6257 10.0611 27.5382 9.97768 27.4334 9.92163ZM14 22.094C9.18749 22.094 6.34374 19.7359 5.08374 18.3304C5.04986 18.2908 5.03124 18.2403 5.03124 18.1882V13.461L13.6916 18.0788C13.7865 18.1294 13.8924 18.1558 14 18.1558C14.1076 18.1558 14.2135 18.1294 14.3084 18.0788L19.4687 15.3269V20.9051C18.0469 21.5854 16.2367 22.094 14 22.094ZM22.9687 18.1882C22.9687 18.2403 22.9501 18.2908 22.9162 18.3304C22.2859 19.0287 21.5684 19.6429 20.7812 20.158V14.6269L22.9687 13.461V18.1882ZM20.5461 13.2663C20.5123 13.2369 20.4756 13.2109 20.4367 13.1887L14.3117 9.92273C14.1591 9.84944 13.9841 9.83795 13.8233 9.89066C13.6624 9.94337 13.5281 10.0562 13.4485 10.2056C13.3689 10.355 13.35 10.5293 13.3959 10.6923C13.4418 10.8552 13.5489 10.9941 13.6948 11.0799L19.168 14.0002L14 16.7565L2.26952 10.5002L14 4.24398L25.7305 10.5002L20.5461 13.2663Z" fill="#13027E"/>
</svg>
