<svg width="20" height="20" viewBox="0 0 20 20" fill="none" xmlns="http://www.w3.org/2000/svg">
<path d="M10 9.99984C10.4584 9.99984 10.8509 9.8365 11.1775 9.50984C11.5042 9.18317 11.6673 8.79095 11.6667 8.33317C11.6667 7.87484 11.5034 7.48234 11.1767 7.15567C10.85 6.829 10.4578 6.66595 10 6.6665C9.54171 6.6665 9.14921 6.82984 8.82254 7.1565C8.49587 7.48317 8.33282 7.87539 8.33337 8.33317C8.33337 8.7915 8.49671 9.184 8.82337 9.51067C9.15004 9.83734 9.54226 10.0004 10 9.99984ZM10 16.1248C11.6945 14.5693 12.9514 13.1559 13.7709 11.8848C14.5903 10.6137 15 9.48539 15 8.49984C15 6.98595 14.5173 5.7465 13.5517 4.7815C12.5862 3.8165 11.4023 3.33373 10 3.33317C8.59726 3.33317 7.4131 3.81595 6.44754 4.7815C5.48199 5.74706 4.99949 6.9865 5.00004 8.49984C5.00004 9.48595 5.40976 10.6146 6.22921 11.8857C7.04865 13.1568 8.3056 14.5698 10 16.1248ZM10 18.3332C7.76393 16.4304 6.09393 14.6632 4.99004 13.0315C3.88615 11.3998 3.33393 9.88928 3.33337 8.49984C3.33337 6.4165 4.00365 4.75678 5.34421 3.52067C6.68476 2.28456 8.23671 1.6665 10 1.6665C11.7639 1.6665 13.3162 2.28456 14.6567 3.52067C15.9973 4.75678 16.6673 6.4165 16.6667 8.49984C16.6667 9.88873 16.1145 11.3993 15.01 13.0315C13.9056 14.6637 12.2356 16.4309 10 18.3332Z" fill="white"/>
</svg>
