<svg width="32" height="32" viewBox="0 0 32 32" fill="none" xmlns="http://www.w3.org/2000/svg">
<path d="M12 10.0002H6.78001C8.07335 8.01253 9.97442 6.49603 12.1998 5.67678C14.4252 4.85752 16.8558 4.77938 19.1292 5.45399C21.4027 6.1286 23.3972 7.51984 24.8156 9.42033C26.2339 11.3208 27.0002 13.6288 27 16.0002H29C29.0028 13.3257 28.1805 10.7154 26.6455 8.52531C25.1104 6.3352 22.9372 4.67185 20.4222 3.76207C17.9072 2.85229 15.1727 2.74036 12.5918 3.44154C10.0108 4.14272 7.70894 5.62288 6.00001 7.6802V4.0002H4.00001V12.0002H12V10.0002ZM20 22.0002H25.22C23.9267 23.9879 22.0256 25.5044 19.8002 26.3236C17.5748 27.1429 15.1442 27.221 12.8708 26.5464C10.5973 25.8718 8.60278 24.4806 7.18443 22.5801C5.76607 20.6796 4.99986 18.3716 5.00001 16.0002H3.00001C2.99725 18.6747 3.81947 21.285 5.35454 23.4751C6.88961 25.6652 9.06281 27.3286 11.5778 28.2383C14.0928 29.1481 16.8273 29.26 19.4082 28.5589C21.9892 27.8577 24.2911 26.3775 26 24.3202V28.0002H28V20.0002H20V22.0002Z" fill="#B3B3B3"/>
</svg>
