<svg width="61" height="61" viewBox="0 0 61 61" fill="none" xmlns="http://www.w3.org/2000/svg">
<path fill-rule="evenodd" clip-rule="evenodd" d="M38.125 53.375C38.125 55.3973 37.3216 57.3367 35.8917 58.7667C34.4617 60.1967 32.5222 61 30.5 61C28.4777 61 26.5382 60.1967 25.1083 58.7667C23.6783 57.3367 22.875 55.3973 22.875 53.375C22.875 51.3527 23.6783 49.4133 25.1083 47.9833C26.5382 46.5533 28.4777 45.75 30.5 45.75C32.5222 45.75 34.4617 46.5533 35.8917 47.9833C37.3216 49.4133 38.125 51.3527 38.125 53.375ZM44.9112 19.6687C44.3751 19.1332 43.6483 18.8325 42.8906 18.8325C42.1329 18.8325 41.4061 19.1332 40.87 19.6687L33.3593 27.1793V2.85938C33.3593 2.10102 33.0581 1.37373 32.5218 0.837492C31.9856 0.301255 31.2583 0 30.5 0C29.7416 0 29.0143 0.301255 28.4781 0.837492C27.9418 1.37373 27.6406 2.10102 27.6406 2.85938V27.1793L20.13 19.6687C19.5879 19.1636 18.871 18.8886 18.1302 18.9017C17.3894 18.9148 16.6827 19.2149 16.1588 19.7388C15.6349 20.2626 15.3348 20.9694 15.3217 21.7102C15.3087 22.451 15.5836 23.1679 16.0887 23.7099L28.4793 36.1006L30.5 38.125L32.5206 36.1044L44.9112 23.7137C45.1769 23.4482 45.3877 23.1329 45.5315 22.7859C45.6753 22.4388 45.7494 22.0669 45.7494 21.6912C45.7494 21.3156 45.6753 20.9436 45.5315 20.5966C45.3877 20.2495 45.1769 19.9342 44.9112 19.6687Z" fill="#E7E7E7"/>
</svg>
